HIERARCHY
ROOT joint_Root
{
  OFFSET 0 0 0
  CHANNELS 6 Xposition Yposition Zposition Zrotation Xrotation Yrotation
  JOINT Hips
  {
    OFFSET 0.847027 93.984 -452.225
    CHANNELS 6 Xposition Yposition Zposition Zrotation Xrotation Yrotation
    JOINT Spine
    {
      OFFSET 15.7357 0 0
      CHANNELS 6 Xposition Yposition Zposition Zrotation Xrotation Yrotation
      JOINT Chest
      {
        OFFSET 8.98455 -0.406207 0
        CHANNELS 6 Xposition Yposition Zposition Zrotation Xrotation Yrotation
        JOINT Neck
        {
          OFFSET 16.3773 0 0
          CHANNELS 6 Xposition Yposition Zposition Zrotation Xrotation Yrotation
          JOINT Head
          {
            OFFSET 6.45672 0 0
            CHANNELS 6 Xposition Yposition Zposition Zrotation Xrotation Yrotation
            End Site
            {
              OFFSET 0 0 0
            }
          }
        }
        JOINT Shoulder_L
        {
          OFFSET 12.9942 -0.242716 4.98039
          CHANNELS 6 Xposition Yposition Zposition Zrotation Xrotation Yrotation
          JOINT UpperArm_L
          {
            OFFSET 5.34809 0 0
            CHANNELS 6 Xposition Yposition Zposition Zrotation Xrotation Yrotation
            JOINT LowerArm_L
            {
              OFFSET 24.3286 1.87007e-05 0
              CHANNELS 6 Xposition Yposition Zposition Zrotation Xrotation Yrotation
              JOINT Hand_L
              {
                OFFSET 22.2916 0 0
                CHANNELS 6 Xposition Yposition Zposition Zrotation Xrotation Yrotation
                End Site
                {
                  OFFSET 0 0 0
                }
              }
            }
          }
        }
        JOINT Shoulder_R
        {
          OFFSET 12.9945 -0.242716 -4.98039
          CHANNELS 6 Xposition Yposition Zposition Zrotation Xrotation Yrotation
          JOINT UpperArm_R
          {
            OFFSET -5.34813 0 0
            CHANNELS 6 Xposition Yposition Zposition Zrotation Xrotation Yrotation
            JOINT LowerArm_R
            {
              OFFSET -24.3289 0.000322201 0
              CHANNELS 6 Xposition Yposition Zposition Zrotation Xrotation Yrotation
              JOINT Hand_R
              {
                OFFSET -22.2915 -0.000108084 0
                CHANNELS 6 Xposition Yposition Zposition Zrotation Xrotation Yrotation
                End Site
                {
                  OFFSET 0 0 0
                }
              }
            }
          }
        }
      }
    }
    JOINT UpperLeg_L
    {
      OFFSET -2.19248 -6.46944 0
      CHANNELS 6 Xposition Yposition Zposition Zrotation Xrotation Yrotation
      JOINT LowerLeg_L
      {
        OFFSET 39.0811 0 -1.23785e-05
        CHANNELS 6 Xposition Yposition Zposition Zrotation Xrotation Yrotation
        JOINT Foot_L
        {
          OFFSET 40.9854 0 -1.26872e-05
          CHANNELS 6 Xposition Yposition Zposition Zrotation Xrotation Yrotation
          JOINT Toes_L
          {
            OFFSET 11.7543 0 0
            CHANNELS 6 Xposition Yposition Zposition Zrotation Xrotation Yrotation
            End Site
            {
              OFFSET 0 0 0
            }
          }
        }
      }
    }
    JOINT UpperLeg_R
    {
      OFFSET -2.19251 6.46944 0
      CHANNELS 6 Xposition Yposition Zposition Zrotation Xrotation Yrotation
      JOINT LowerLeg_R
      {
        OFFSET -39.0811 -0.00228153 -0.0401928
        CHANNELS 6 Xposition Yposition Zposition Zrotation Xrotation Yrotation
        JOINT Foot_R
        {
          OFFSET -40.9854 0 0
          CHANNELS 6 Xposition Yposition Zposition Zrotation Xrotation Yrotation
          JOINT Toes_R
          {
            OFFSET -11.7543 0 0
            CHANNELS 6 Xposition Yposition Zposition Zrotation Xrotation Yrotation
            End Site
            {
              OFFSET 0 0 0
            }
          }
        }
      }
    }
  }
}
MOTION
Frames:	6
Frame Time:	0.0333333
0 0 0 0 0 -0 -7.91927 92.8776 5.29124 88.3059 22.5452 3.86897 15.7357 5.1072e-06 -5.51765e-07 97.896 86.4557 -96.3439 8.98455 -0.406207 -4.3199e-07 -0.754397 0.858245 3.10849 16.3773 -1.3905e-06 -6.99897e-07 2.09127 -10.2728 2.55119 6.45672 -1.25837e-06 -1.02172e-07 12.2487 -17.1216 -0.0457737 12.9942 -0.242716 4.98039 -91.6847 9.14309 -94.5134 5.34809 -7.22636e-06 -6.2814e-07 -67.1734 24.9527 -0.855184 24.3286 1.87007e-05 4.90208e-06 -0.970202 -3.039 -17.7148 22.2916 -9.88446e-07 4.63217e-06 16.0304 5.56618 -9.49429 12.9945 -0.242716 -4.98039 89.6321 9.82144 -102.844 -5.34813 -1.25947e-06 -3.79883e-06 -48.7624 -29.0744 -43.0986 -24.3289 0.000322201 -8.65921e-06 -54.4569 -49.2332 -61.5821 -22.2915 -0.000108084 -4.47941e-06 8.32328 5.31054 -0.225003 -2.19248 -6.46944 -1.22534e-07 -168.342 -6.65038 4.73311 39.0811 -6.73843e-06 -1.23785e-05 0.00138607 -4.57991e-06 6.13308 40.9854 -6.48686e-06 -1.26872e-05 -8.06264 4.56463 -56.3578 11.7543 -2.30145e-07 3.05095e-06 0.016661 -0.030993 -17.0936 -2.19251 6.46944 -1.45247e-06 177.241 21.2187 178.071 -39.0811 -0.00228153 -0.0401928 -0.0134805 0.0940742 16.1908 -40.9854 7.72618e-06 5.99936e-06 -1.17334 5.11118 -60.2046 -11.7543 -5.6619e-06 -5.58687e-06 -0.0810717 0.0539421 -16.5723 
0 0 0 0 0 -0 -7.9374 92.8688 5.29637 88.2906 22.496 3.92735 15.7357 5.1072e-06 -5.51765e-07 97.9148 86.4531 -96.3779 8.98455 -0.406207 -4.3199e-07 -0.749518 0.862566 3.07798 16.3773 -1.3905e-06 -6.99897e-07 1.99218 -10.2194 2.49694 6.45672 -1.25837e-06 -1.02172e-07 12.2624 -16.9763 0.0165914 12.9942 -0.242716 4.98039 -91.6825 9.15451 -94.5393 5.34809 -7.22636e-06 -6.2814e-07 -67.2037 24.9366 -0.84111 24.3286 1.87007e-05 4.90208e-06 -0.932511 -2.93222 -17.6519 22.2916 -9.88446e-07 4.63217e-06 16.036 5.56595 -9.48232 12.9945 -0.242716 -4.98039 89.6348 9.8363 -102.863 -5.34813 -1.25947e-06 -3.79883e-06 -48.7613 -29.08 -43.0551 -24.3289 0.000322201 -8.65921e-06 -54.554 -49.1838 -61.6856 -22.2915 -0.000108084 -4.47941e-06 8.25256 5.30926 -0.188889 -2.19248 -6.46944 -1.22534e-07 -168.315 -6.60246 4.75855 39.0811 -6.73843e-06 -1.23785e-05 0.00137986 -9.19251e-05 6.21693 40.9854 -6.48686e-06 -1.26872e-05 -8.03617 4.51057 -56.4511 11.7543 -2.30145e-07 3.05095e-06 0.0198251 -0.0308719 -17.1288 -2.19251 6.46944 -1.45247e-06 177.249 21.2396 178.079 -39.0811 -0.00228153 -0.0401928 -0.013929 0.0943443 16.2733 -40.9854 7.72618e-06 5.99936e-06 -1.14598 5.16239 -60.2427 -11.7543 -5.6619e-06 -5.58687e-06 -0.0832484 0.0554481 -16.5721 
0 0 0 0 0 -0 -7.95715 92.8693 5.2942 88.2828 22.4589 3.95196 15.7357 5.1072e-06 -5.51765e-07 97.9851 86.4622 -96.464 8.98455 -0.406207 -4.3199e-07 -0.768801 0.869448 3.0467 16.3773 -1.3905e-06 -6.99897e-07 1.99215 -10.1738 2.46547 6.45672 -1.25837e-06 -1.02172e-07 12.1573 -16.915 0.0121871 12.9942 -0.242716 4.98039 -91.6956 9.18046 -94.4887 5.34809 -7.22636e-06 -6.2814e-07 -67.2002 24.9589 -0.865461 24.3286 1.87007e-05 4.90208e-06 -0.955942 -3.01742 -17.5891 22.2916 -9.88446e-07 4.63217e-06 16.0211 5.56642 -9.50587 12.9945 -0.242716 -4.98039 89.6341 9.82509 -102.857 -5.34813 -1.25947e-06 -3.79883e-06 -48.7892 -29.0632 -43.1452 -24.3289 0.000322201 -8.65921e-06 -54.5038 -49.2071 -61.6329 -22.2915 -0.000108084 -4.47941e-06 8.33263 5.31031 -0.218757 -2.19248 -6.46944 -1.22534e-07 -168.282 -6.67267 4.78904 39.0811 -6.73843e-06 -1.23785e-05 0.00135531 0.000361985 6.20536 40.9854 -6.48686e-06 -1.26872e-05 -8.11204 4.51928 -56.3991 11.7543 -2.30145e-07 3.05095e-06 0.0196223 -0.0305513 -17.1232 -2.19251 6.46944 -1.45247e-06 177.271 21.161 178.096 -39.0811 -0.00228153 -0.0401928 -0.0131546 0.0940369 16.2689 -40.9854 7.72618e-06 5.99936e-06 -1.13728 5.12804 -60.2428 -11.7543 -5.6619e-06 -5.58687e-06 -0.0769606 0.0512517 -16.5723 
0 0 0 0 0 -0 -7.96685 92.86 5.30959 88.284 22.3945 3.99995 15.7357 5.1072e-06 -5.51765e-07 98.2009 86.4617 -96.7004 8.98455 -0.406207 -4.3199e-07 -0.771687 0.897471 3.00575 16.3773 -1.3905e-06 -6.99897e-07 1.90081 -10.1357 2.4234 6.45672 -1.25837e-06 -1.02172e-07 12.2874 -16.8557 0.00319976 12.9942 -0.242716 4.98039 -91.6969 9.18036 -94.4812 5.34809 -7.22636e-06 -6.2814e-07 -67.2127 24.9376 -0.848065 24.3286 1.87007e-05 4.90208e-06 -0.937468 -2.96262 -17.5689 22.2916 -9.88446e-07 4.63217e-06 16.0248 5.56578 -9.47465 12.9945 -0.242716 -4.98039 89.6281 9.89068 -102.836 -5.34813 -1.25947e-06 -3.79883e-06 -48.795 -29.0827 -43.211 -24.3289 0.000322201 -8.65921e-06 -54.4081 -49.1946 -61.5527 -22.2915 -0.000108084 -4.47941e-06 8.339 5.30862 -0.171995 -2.19248 -6.46944 -1.22534e-07 -168.267 -6.69607 4.84126 39.0811 -6.73843e-06 -1.23785e-05 0.00135365 0.000837732 6.25177 40.9854 -6.48686e-06 -1.26872e-05 -8.08033 4.51135 -56.4793 11.7543 -2.30145e-07 3.05095e-06 0.0191575 -0.0298182 -17.1099 -2.19251 6.46944 -1.45247e-06 177.266 21.1197 178.093 -39.0811 -0.00228153 -0.0401928 -0.012631 0.0926515 16.3687 -40.9854 7.72618e-06 5.99936e-06 -1.11811 5.15298 -60.2946 -11.7543 -5.6619e-06 -5.58687e-06 -0.0777052 0.051809 -16.5723 
0 0 0 0 0 -0 -7.98047 92.8555 5.31441 88.2464 22.4102 4.05799 15.7357 5.1072e-06 -5.51765e-07 98.0498 86.4653 -96.549 8.98455 -0.406207 -4.3199e-07 -0.775998 0.877849 3.00616 16.3773 -1.3905e-06 -6.99897e-07 1.89169 -10.1488 2.39978 6.45672 -1.25837e-06 -1.02172e-07 12.2538 -16.8597 -0.0958339 12.9942 -0.242716 4.98039 -91.7036 9.21655 -94.4807 5.34809 -7.22636e-06 -6.2814e-07 -67.2123 24.9355 -0.792966 24.3286 1.87007e-05 4.90208e-06 -0.944766 -2.9815 -17.5915 22.2916 -9.88446e-07 4.63217e-06 16.042 5.56596 -9.48334 12.9945 -0.242716 -4.98039 89.6214 9.85988 -102.79 -5.34813 -1.25947e-06 -3.79883e-06 -48.7849 -29.0142 -43.1792 -24.3289 0.000322201 -8.65921e-06 -54.3801 -49.1226 -61.5538 -22.2915 -0.000108084 -4.47941e-06 8.3628 5.30953 -0.196285 -2.19248 -6.46944 -1.22534e-07 -168.209 -6.65382 4.87733 39.0811 -6.73843e-06 -1.23785e-05 0.00132438 0.000915706 6.2656 40.9854 -6.48686e-06 -1.26872e-05 -8.11194 4.51226 -56.5029 11.7543 -2.30145e-07 3.05095e-06 0.020202 -0.0314669 -17.1395 -2.19251 6.46944 -1.45247e-06 177.296 21.1266 178.135 -39.0811 -0.00228153 -0.0401928 -0.01264 0.0929469 16.3794 -40.9854 7.72618e-06 5.99936e-06 -1.1065 5.14279 -60.3042 -11.7543 -5.6619e-06 -5.58687e-06 -0.0777772 0.0518403 -16.5722 
0 0 0 0 0 -0 -7.99119 92.8484 5.32596 88.2514 22.4034 4.1176 15.7357 5.1072e-06 -5.51765e-07 97.9653 86.4579 -96.4818 8.98455 -0.406207 -4.3199e-07 -0.759586 0.871168 2.97136 16.3773 -1.3905e-06 -6.99897e-07 1.87266 -10.1349 2.3372 6.45672 -1.25837e-06 -1.02172e-07 12.2756 -16.8411 -0.0944017 12.9942 -0.242716 4.98039 -91.6989 9.19816 -94.4882 5.34809 -7.22636e-06 -6.2814e-07 -67.235 24.958 -0.757092 24.3286 1.87007e-05 4.90208e-06 -0.912512 -2.88007 -17.5891 22.2916 -9.88446e-07 4.63217e-06 16.0548 5.56572 -9.47067 12.9945 -0.242716 -4.98039 89.6162 9.88451 -102.765 -5.34813 -1.25947e-06 -3.79883e-06 -48.6837 -28.9367 -43.1808 -24.3289 0.000322201 -8.65921e-06 -54.4095 -49.1566 -61.5679 -22.2915 -0.000108084 -4.47941e-06 8.28274 5.30745 -0.137149 -2.19248 -6.46944 -1.22534e-07 -168.204 -6.6405 4.93333 39.0811 -6.73843e-06 -1.23785e-05 0.00129639 0.00155552 6.30139 40.9854 -6.48686e-06 -1.26872e-05 -8.08684 4.49332 -56.5634 11.7543 -2.30145e-07 3.05095e-06 0.0190047 -0.0295685 -17.1056 -2.19251 6.46944 -1.45247e-06 177.279 21.0757 178.168 -39.0811 -0.00228153 -0.0401928 -0.0127104 0.0923991 16.4538 -40.9854 7.72618e-06 5.99936e-06 -1.10394 5.09687 -60.3513 -11.7543 -5.6619e-06 -5.58687e-06 -0.0810016 0.0540173 -16.5721 
